<svg version="1" xmlns="http://www.w3.org/2000/svg" width="1066.667" height="1066.667" viewBox="0 0 800.000000 800.000000"><path d="M43.8 1C23.7 4.4 8.8 17.3 2.7 36.5.5 43.4.5 44.5.5 100s0 56.6 2.2 63.5c5.2 16.6 17.2 28.6 33.8 33.8 6.9 2.2 8 2.2 63.5 2.2s56.6 0 63.5-2.2c16.4-5.2 28.4-17 33.7-33.2 1.8-5.7 2.2-9.6 2.6-29.4l.4-22.7h-5.8c-87.5-.2-96.8-.5-100.4-2.6-1.9-1.1-4.6-4-6-6.5l-2.5-4.4-.2-38c-.2-20.9-.3-43.1-.3-49.3V0L66.8.1c-10.1.1-20.4.5-23 .9z"/><path d="M116 11.6c-.2 39.8 0 68.7.4 69.1.3.3 39.7.5 78 .3h5.8l-.4-19.3c-.6-22-2-28.1-8.7-38.3-6.6-10.1-15.4-16.8-27.1-20.6C158.5 1 154.3.6 136.8.2L116-.2v11.8zM343.8 1c-15.5 2.7-27.7 10.7-35.7 23.5-6 9.5-7.3 15.9-7.9 37.2l-.4 19.3h11.3c6.3 0 29.9.1 52.4.3 39.2.2 41.2.3 44.5 2.2 1.9 1.2 4.3 3.6 5.5 5.5 1.9 3.4 2 5.3 2.2 47.5.2 24.2.3 48.4.3 53.9v9.8l20.8-.4c17.5-.4 21.7-.8 27.2-2.6 16.2-5.3 28.1-17.3 33.3-33.7 2.2-6.9 2.2-8 2.2-63.5s0-56.6-2.2-63.5c-5.2-16.3-16.9-28.2-33.2-33.7C457.6.6 456.3.6 403 .4c-30-.1-56.6.2-59.2.6zM643.8 1c-20.1 3.4-35 16.3-41.1 35.5-2.2 6.9-2.2 8-2.2 63.5s0 56.6 2.2 63.5c5.2 16.6 17.2 28.6 33.8 33.8 6.9 2.2 8 2.2 63.5 2.2s56.6 0 63.5-2.2c16.4-5.2 28.4-17 33.7-33.2 1.8-5.7 2.2-9.6 2.6-29.4l.4-22.7h-5.8c-87.5-.2-96.8-.5-100.4-2.6-1.9-1.1-4.6-4-6-6.5l-2.5-4.4-.2-38c-.2-20.9-.3-43.1-.3-49.3V0l-18.2.1c-10.1.1-20.4.5-23 .9z"/><path d="M716 11.6c-.2 39.8 0 68.7.4 69.1.3.3 39.7.5 78 .3h5.8l-.4-19.3c-.6-22-2-28.1-8.7-38.3-6.6-10.1-15.4-16.8-27.1-20.6C758.5 1 754.3.6 736.8.2L716-.2v11.8zM311.6 111.8l-11.8.3.4 22.7c.4 19.6.8 23.6 2.6 29.2 5.2 16 17.2 28 33.1 33.2 5.6 1.8 9.7 2.2 27.9 2.6l21.2.4v-10.3c.2-37.3 0-77.3-.3-77.6-.5-.4-58.1-.9-73.1-.5zM43.8 301c-15.5 2.7-27.7 10.7-35.7 23.5-6.2 9.8-7.3 15.7-7.9 39.2L-.2 385h11.3c6.3 0 29.8.1 52.4.3 39.2.2 41.2.3 44.5 2.2 1.9 1.2 4.3 3.6 5.5 5.5 1.9 3.4 2 5.3 2.2 47.5.2 24.2.3 47.5.3 51.9v7.8l20.8-.4c17.5-.4 21.7-.8 27.2-2.6 16.2-5.3 28.1-17.3 33.3-33.7 2.2-6.9 2.2-8 2.2-63.5s0-56.6-2.2-63.5c-5.2-16.3-16.9-28.2-33.2-33.7-6.5-2.2-7.8-2.2-61.1-2.4-30-.1-56.6.2-59.2.6zM343.8 301c-20.1 3.4-35 16.3-41.1 35.5-2.2 6.9-2.2 8-2.2 63.5s0 56.6 2.2 63.5c5.2 16.6 17.2 28.6 33.8 33.8 6.9 2.2 8 2.2 63.5 2.2s56.6 0 63.5-2.2c12.1-3.8 20.9-10.4 27.6-20.7 6.9-10.5 8.1-16.2 8.7-40.1l.4-21h-51.8c-50.4 0-52-.1-55.4-2-1.9-1.2-4.3-3.6-5.5-5.5-1.9-3.3-2-5.3-2.2-44.5-.2-22.6-.3-46.1-.3-52.3V300l-18.2.1c-10.1.1-20.4.5-23 .9z"/><path d="M416 311.6c-.2 38 0 72.8.3 73.1.2.2 19.2.4 42.2.6l41.7.2-.4-21.5c-.4-18.4-.8-22.4-2.6-28.1C492 320 480 308 464 302.8c-5.5-1.8-9.7-2.2-27.2-2.6l-20.8-.4v11.8zM643.8 301c-15.5 2.7-27.7 10.7-35.7 23.5-6.2 9.8-7.3 15.7-7.9 39.2l-.4 21.3h11.3c6.3 0 29.9.1 52.4.3 39.2.2 41.2.3 44.5 2.2 1.9 1.2 4.3 3.6 5.5 5.5 1.9 3.4 2 5.3 2.2 47.5.2 24.2.3 47.5.3 51.9v7.8l20.8-.4c17.5-.4 21.7-.8 27.2-2.6 16.2-5.3 28.1-17.3 33.3-33.7 2.2-6.9 2.2-8 2.2-63.5s0-56.6-2.2-63.5c-5.2-16.3-16.9-28.2-33.2-33.7-6.5-2.2-7.8-2.2-61.1-2.4-30-.1-56.6.2-59.2.6zM11.6 415.8l-11.8.3.4 20.7c.4 17.5.8 21.7 2.6 27.2C8 480 20 492 35.9 497.2c5.6 1.8 9.7 2.2 27.9 2.6l21.2.4v-8.3c.2-32.8 0-75.3-.3-75.6-.5-.4-58.1-.9-73.1-.5z"/><path d="M611.6 415.8l-11.8.3.4 20.7c.4 17.5.8 21.7 2.6 27.2 5.2 16 17.2 28 33.1 33.2 5.6 1.8 9.7 2.2 27.9 2.6l21.2.4v-8.3c.2-32.8 0-75.3-.3-75.6-.5-.4-58.1-.9-73.1-.5zM43.8 601c-15.4 2.6-27.7 10.7-35.7 23.5-6.2 9.8-7.3 15.7-7.9 39.2L-.2 685h11.8c37.8.2 72.8 0 73.1-.3.3-.3.5-44.9.3-76.5V600l-18.2.1c-10.1.1-20.4.5-23 .9z"/><path d="M116 607.6c-.2 83.6-.5 95.8-2.5 99.4-1.3 2.2-3.9 4.4-7 6l-5 2.5-39.5.2c-21.7.2-44.6.3-50.9.3H-.2l.4 20.7c.6 23.7 1.8 29.4 8.7 39.9 6.7 10.3 15.5 16.9 27.6 20.7 6.9 2.2 8 2.2 63.5 2.2s56.6 0 63.5-2.2c16.6-5.2 28.6-17.2 33.8-33.8 2.2-6.9 2.2-8 2.2-63.5s0-56.6-2.2-63.5c-5.2-16.4-17.1-28.4-33.3-33.7-5.5-1.8-9.7-2.2-27.2-2.6l-20.8-.4v7.8zM343.8 601c-20.2 3.5-35 16.3-41.1 35.5-2.2 6.9-2.2 8-2.2 63.5s0 56.6 2.2 63.5c5.2 16.4 17.1 28.4 33.3 33.7 5.5 1.8 9.7 2.2 27.8 2.6l21.2.4v-7.8c0-4.4.1-27.7.3-51.9.2-42.2.3-44.1 2.2-47.5 1.2-1.9 3.6-4.3 5.5-5.5 3.4-1.9 5.2-2 55-2.2l51.5-.3v-20.7c0-18.6-.3-21.5-2.2-27.8-5.1-16.3-16.9-28.2-33.2-33.7-6.5-2.2-7.8-2.2-61.1-2.4-30-.1-56.6.2-59.2.6zM643.8 601c-15.4 2.6-27.7 10.7-35.7 23.5-6.2 9.8-7.3 15.7-7.9 39.2l-.4 21.3h8.3c31.8.2 76.3 0 76.6-.3.3-.3.5-35.4.3-73V600l-18.2.1c-10.1.1-20.4.5-23 .9z"/><path d="M716 611.1c0 6.3-.1 29.2-.3 50.9l-.2 39.5-2.5 5c-1.6 3.1-3.8 5.7-6 7-3.6 2-15.8 2.3-99.4 2.5h-7.8l.4 20.7c.6 23.7 1.8 29.4 8.7 39.9 6.7 10.3 15.5 16.9 27.6 20.7 6.9 2.2 8 2.2 63.5 2.2s56.6 0 63.5-2.2c16.6-5.2 28.6-17.2 33.8-33.8 2.2-6.9 2.2-8 2.2-63.5s0-56.6-2.2-63.5c-5.2-16.4-17.1-28.4-33.3-33.7-5.5-1.8-9.7-2.2-27.2-2.6l-20.8-.4v11.3zM424.3 715.8l-8.3.3v10.2c-.1 12.4-.1 55.2 0 66.1v7.8l20.8-.4c17.5-.4 21.7-.8 27.2-2.6 16.2-5.3 28.2-17.4 33.3-33.7 1.9-6.2 2.2-9.2 2.2-27.3v-20.3l-33.5-.2c-18.4-.1-37.2-.1-41.7.1z"/></svg>